<svg width="2560" height="1204" viewBox="0 0 2560 1204" fill="none" xmlns="http://www.w3.org/2000/svg">
<path d="M276.27 191.8H190.56L243.57 0.160156L686.95 2.13015L635.92 191.8H555.89L277.47 1203.56H0L276.27 191.8Z" fill="white"/>
<path d="M1707.92 0.180176L1385.53 1203.56H1100.69L1377.53 191.8H1315.12L1034.9 1203.56H755.889L1033.49 191.8H968.579L690.429 1203.56C688.173 1203.56 411.949 1203.56 411.949 1203.56L741.429 0.180176H1707.92Z" fill="white"/>
<path d="M1850.54 696.16H2368.45L2559.74 0H1762.78L1711.11 188.52H2229.16L2141.82 506.35L1623.55 508.005L1432.92 1203.59H2229.02L2280.96 1014.57L1762.84 1015.35L1850.54 696.16Z" fill="#1B65C7"/>
</svg>
